<svg width="213" height="40" viewBox="0 0 213 40" fill="none" xmlns="http://www.w3.org/2000/svg">
<path d="M8.57829 0L16.8108 25.5379L24.9472 0H40.1729L31.7003 4.89914L20.7541 35H12.8194L0 0H8.57829Z" fill="white"/>
<path d="M51.7722 34.731V20.3218L46.5609 30.8117H43.4917L38.2756 20.3122V34.7214H32.6848V10.5331H38.7559L44.9999 23.1748L51.3063 10.5331H57.339V34.731H51.7722Z" fill="white"/>
<path d="M68.0979 10.5331H74.1306L82.4495 34.731H76.7243L74.8462 29.2987H67.315L65.4755 34.7214H59.7502L68.0979 10.5331ZM73.9289 25.4563L71.0854 16.1527L68.2036 25.4563H73.9289Z" fill="white"/>
<path d="M84.8317 34.731V10.5331H95.7395C96.8005 10.5207 97.8514 10.7394 98.8193 11.1741C99.7873 11.6087 100.649 12.2488 101.345 13.0499C102.576 14.3308 103.361 15.9754 103.581 17.7385C103.802 19.5016 103.447 21.2889 102.569 22.8338C101.903 24.0495 100.903 25.0494 99.6876 25.7157L105.005 34.7166H98.8423L94.2073 26.9068H90.4225V34.731H84.8317ZM90.4225 22.0509H95.5378C95.8815 22.0458 96.2186 21.9553 96.5188 21.7876C96.8189 21.62 97.0727 21.3803 97.2573 21.0903C97.7463 20.4026 98.0006 19.5756 97.9825 18.732C98.0166 17.8751 97.7307 17.0362 97.1804 16.3785C96.9687 16.1017 96.6981 15.8754 96.3883 15.716C96.0785 15.5565 95.7371 15.4678 95.3889 15.4563H90.4225V22.0509Z" fill="white"/>
<path d="M125.802 15.437H118.439V34.731H112.872V15.437H105.475V10.5331H125.821L125.802 15.437Z" fill="white"/>
<path d="M128.53 34.731V10.5332H138.857C139.921 10.5167 140.976 10.7334 141.948 11.1682C142.919 11.603 143.784 12.2453 144.481 13.05C145.945 14.5794 146.762 16.6148 146.763 18.732C146.794 20.8605 146.015 22.9213 144.582 24.4957C143.896 25.2901 143.042 25.9224 142.082 26.3468C141.121 26.7712 140.079 26.9773 139.03 26.9501H134.121V34.731H128.53ZM134.121 22.0509H138.684C139.021 22.0505 139.353 21.9696 139.653 21.8151C139.953 21.6606 140.212 21.4368 140.408 21.1624C140.912 20.4488 141.158 19.5847 141.105 18.7128C141.162 17.8341 140.882 16.9666 140.322 16.2872C140.093 16.0225 139.811 15.8097 139.494 15.663C139.177 15.5164 138.832 15.4394 138.482 15.4371H134.121V22.0509Z" fill="white"/>
<path d="M149.764 34.731V10.5331H155.355V29.8223H167.08V34.731H149.764Z" fill="white"/>
<path d="M179.587 34.9327C177.896 34.9714 176.216 34.6437 174.664 33.9721C173.325 33.3945 172.165 32.4711 171.302 31.2968C170.47 30.132 169.846 28.832 169.457 27.4543C169.037 25.9685 168.83 24.4306 168.842 22.8866V10.5331H174.433V22.901C174.365 24.6718 174.796 26.426 175.677 27.9635C176.51 29.2955 177.811 29.9599 179.582 29.9567C180.689 29.9997 181.772 29.6222 182.613 28.9001C183.398 28.2166 183.973 27.3236 184.27 26.3256C184.587 25.2123 184.741 24.0587 184.726 22.901V10.5331H190.317V22.901C190.317 26.4457 189.42 29.3371 187.627 31.5754C185.834 33.8136 183.154 34.9327 179.587 34.9327Z" fill="white"/>
<path d="M209.169 17.6177C208.9 17.2975 208.071 16.8332 206.681 16.2248C205.443 15.6413 204.096 15.327 202.728 15.3026C200.73 15.3026 199.731 15.975 199.731 17.3103C199.724 17.6439 199.815 17.9723 199.994 18.2543C200.172 18.5362 200.43 18.7592 200.735 18.8953C201.871 19.4196 203.052 19.8377 204.265 20.1441C204.315 20.1376 204.365 20.1376 204.414 20.1441L204.534 20.1777L204.673 20.2113C204.72 20.2247 204.765 20.2424 204.808 20.2641C207.395 20.991 209.299 21.8716 210.519 22.9058C211.739 23.9401 212.345 25.5027 212.339 27.5936C212.339 30.1361 211.476 32.0045 209.75 33.1988C208.024 34.3932 205.866 34.9888 203.276 34.9856C201.428 34.9787 199.591 34.7103 197.819 34.1883C196.093 33.7031 194.45 32.9616 192.944 31.9885L195.399 27.1133C195.764 27.5216 196.782 28.098 198.449 28.8328C199.995 29.5447 201.674 29.9228 203.377 29.9423C205.355 29.9423 206.34 29.342 206.34 28.1364C206.341 27.946 206.314 27.7566 206.258 27.5744C206.2 27.3976 206.107 27.2343 205.985 27.0941C205.866 26.9511 205.734 26.8193 205.591 26.7003C205.414 26.5626 205.22 26.448 205.014 26.3593L204.332 26.0519C204.126 25.9606 203.852 25.8597 203.497 25.7445C203.141 25.6292 202.843 25.5427 202.594 25.4755L201.571 25.1825L200.48 24.8607C198.159 24.1562 196.494 23.3093 195.485 22.3199C194.476 21.3304 193.967 19.9519 193.967 18.1796C193.967 15.7268 194.821 13.8056 196.527 12.4159C198.336 10.9833 200.595 10.241 202.901 10.3218C205.696 10.3218 208.604 11.2072 211.623 12.9779L209.169 17.6177Z" fill="white"/>
</svg>
